<svg xmlns="http://www.w3.org/2000/svg" viewBox="0 0 254.34 310.5"><defs><style>.cls-1{fill:#f2f2f2;}.cls-2{fill:#fff;}.cls-3,.cls-4{fill:aqua;}.cls-4{stroke:#000;stroke-miterlimit:10;stroke-width:3px;}</style></defs><g id="katman_2" data-name="katman 2"><g id="katman_1-2" data-name="katman 1"><path class="cls-1" d="M7.84,309V123H50.73a57.35,57.35,0,0,0,5.8.28,58.16,58.16,0,0,0,5.84-.28h50.47V76h140V225.71H153.25c-2.38-1.26-4.8-2.48-7.19-3.63-5-2.39-9-4.54-12.06-6.39-5.86-3.47-9.86-6.84-11.92-10a17.87,17.87,0,0,1-3.08-9.8,17.2,17.2,0,0,1,2.89-9.93,21.69,21.69,0,0,1,7.14-6.74,38,38,0,0,1,11.3-4.15A61.13,61.13,0,0,1,153,173.66c6.92,0,12.84.23,17.6.67l8.18.78,1.83.19L178.74,156l-1.2-.14c-.7-.08-3.11-.23-8.26-.52-4.76-.26-9.53-.39-14.19-.39a94.11,94.11,0,0,0-23.48,2.74A51.58,51.58,0,0,0,113.48,166c-1.1.84-2.16,1.72-3.15,2.62a45.86,45.86,0,0,0-8.77,10.79,36.4,36.4,0,0,0-4.65,18.67,37.06,37.06,0,0,0,5.1,19.13,38.64,38.64,0,0,0,7.83,9.2v2.28h2.78a70.7,70.7,0,0,0,6.24,4.25,148.54,148.54,0,0,0,15.31,8.17c5.52,2.58,10.09,4.94,13.56,7,5.27,3.1,9.05,6.34,11.26,9.61a20.8,20.8,0,0,1,3.28,11.9A17.26,17.26,0,0,1,159,280.41a26.77,26.77,0,0,1-9.63,7.42c-3.22,1.58-8,2.9-14.08,3.92a96,96,0,0,1-15.13,1.55c-6.41,0-12.07-.21-16.83-.61s-7.67-.69-8.68-.83l-1.81-.26,1,17.4Z"/><path d="M251.34,77.5V224.21H153.62c-2.28-1.2-4.6-2.37-6.91-3.48-4.92-2.37-8.93-4.5-12-6.34-5.64-3.34-9.48-6.55-11.41-9.55a16.15,16.15,0,0,1-2.84-9,15.57,15.57,0,0,1,2.63-9.09,20.26,20.26,0,0,1,6.65-6.28,36.56,36.56,0,0,1,10.86-4A59.52,59.52,0,0,1,153,175.16c6.87,0,12.75.22,17.46.67l8.17.77,3.65.39-.35-3.66-1.57-16.28-.24-2.41-2.4-.28c-.74-.09-3.07-.23-8.35-.53-4.79-.26-9.59-.39-14.27-.39a95.68,95.68,0,0,0-23.86,2.79,53,53,0,0,0-18.67,8.61c-1.13.86-2.21,1.76-3.23,2.69a47.38,47.38,0,0,0-9.07,11.15,37.9,37.9,0,0,0-4.85,19.42,38.57,38.57,0,0,0,5.31,19.9,39.74,39.74,0,0,0,7.62,9.1v3.11h3.77c1.83,1.38,3.83,2.73,6,4a151.65,151.65,0,0,0,15.47,8.26c5.48,2.56,10,4.89,13.45,6.93,5.06,3,8.68,6.07,10.77,9.16a19.4,19.4,0,0,1,3,11.06c0,4.07-1,7.3-2.92,9.86a25.42,25.42,0,0,1-9.1,7c-3.09,1.51-7.69,2.78-13.66,3.78a94.35,94.35,0,0,1-14.89,1.53c-6.36,0-12-.2-16.7-.61-5.87-.5-7.92-.72-8.6-.82l-3.62-.52.2,3.66.78,14H9.34v-183H50.66a58.76,58.76,0,0,0,5.87.28c2,0,4-.09,5.92-.28h51.89v-47h137m3-3h-143v47h-49a57.76,57.76,0,0,1-5.77.28,56.62,56.62,0,0,1-5.72-.28H6.34v189H116.8q-6.08,0-12.48-.43-7.71-.45-8.94-.56l-.9-16.17q1.58.23,8.76.84t17,.62a97.4,97.4,0,0,0,15.38-1.57q9.43-1.58,14.49-4.05a28.06,28.06,0,0,0,10.16-7.86,18.6,18.6,0,0,0,3.54-11.68,22.17,22.17,0,0,0-3.54-12.74q-3.53-5.23-11.73-10.06-5.28-3.14-13.7-7.07a148,148,0,0,1-15.16-8.09,68.45,68.45,0,0,1-6.51-4.47h-1.79v-1.47a37.31,37.31,0,0,1-8-9.27,35.39,35.39,0,0,1-4.89-18.37,34.84,34.84,0,0,1,4.44-17.91,44.07,44.07,0,0,1,8.49-10.44c1-.88,2-1.72,3-2.53a50,50,0,0,1,17.6-8.09,92.45,92.45,0,0,1,23.11-2.69q7,0,14.11.39c4.76.27,7.48.43,8.16.51l1.57,16.28-8.2-.78q-7.18-.68-17.74-.68a62.74,62.74,0,0,0-13,1.41,39.3,39.3,0,0,0-11.74,4.32,23.19,23.19,0,0,0-7.63,7.19,18.62,18.62,0,0,0-3.15,10.78,19.21,19.21,0,0,0,3.32,10.61q3.3,5.11,12.4,10.5,4.6,2.81,12.19,6.46,3.76,1.81,7.47,3.78H254.34V74.5Z"/><path class="cls-2" d="M62.3,121.49a57.76,57.76,0,0,1-5.77.28,56.62,56.62,0,0,1-5.72-.28Z"/><path d="M62.3,121.49H50.81a56.62,56.62,0,0,0,5.72.28,57.76,57.76,0,0,0,5.77-.28Z"/><path class="cls-3" d="M134.57,302l2.41-.39c7.17-1.19,12.68-2.76,16.83-4.8A36.57,36.57,0,0,0,167,286.49c3.51-4.57,5.29-10.24,5.29-16.85a30.53,30.53,0,0,0-5-17.51c-3.06-4.56-7.8-8.69-14.44-12.61-3.74-2.22-8.6-4.73-14.42-7.45a140.73,140.73,0,0,1-14.3-7.62,62.15,62.15,0,0,1-5.74-3.94l-.63-.49-.88-.75a29.26,29.26,0,0,1-6.24-7.13,26.83,26.83,0,0,1-3.7-14,26.27,26.27,0,0,1,3.28-13.62,35.82,35.82,0,0,1,6.79-8.37,33.87,33.87,0,0,0-3.36,4.19A27.06,27.06,0,0,0,109,195.86a27.67,27.67,0,0,0,4.69,15.24c2.93,4.54,7.89,8.85,15.15,13.16,3.32,2,7.65,4.31,12.88,6.83,2.38,1.15,4.8,2.37,7.18,3.63l1.87,1h24.07V302Z"/><path class="cls-3" d="M155.09,156.44A92.45,92.45,0,0,0,132,159.13a50,50,0,0,0-17.6,8.09c-1.06.81-2.07,1.65-3,2.53a44.07,44.07,0,0,0-8.49,10.44,34.84,34.84,0,0,0-4.44,17.91,35.39,35.39,0,0,0,4.89,18.37,37.31,37.31,0,0,0,8,9.27v1.47h1.79a68.45,68.45,0,0,0,6.51,4.47,148,148,0,0,0,15.16,8.09q8.41,3.93,13.7,7.07,8.19,4.83,11.73,10.06a22.17,22.17,0,0,1,3.54,12.74,18.6,18.6,0,0,1-3.54,11.68,28.06,28.06,0,0,1-10.16,7.86q-5.06,2.47-14.49,4.05a97.4,97.4,0,0,1-15.38,1.57q-9.78,0-17-.62t-8.76-.84l.9,16.17q1.23.11,8.94.56,6.41.38,12.48.43h66.54V227.21H152.88q-3.7-2-7.47-3.78-7.57-3.65-12.19-6.46-9.09-5.39-12.4-10.5a19.21,19.21,0,0,1-3.32-10.61,18.62,18.62,0,0,1,3.15-10.78,23.19,23.19,0,0,1,7.63-7.19A39.3,39.3,0,0,1,140,173.57a62.74,62.74,0,0,1,13-1.41q10.56,0,17.74.68l8.2.78-1.57-16.28c-.68-.08-3.4-.24-8.16-.51s-9.46-.39-14.11-.39Z"/><path class="cls-3" d="M181.34,225.5V127.4"/><path d="M185.84,225.5v-102h-9v3.9a4.5,4.5,0,0,0,9,0v-3.9a4.5,4.5,0,0,0-9,0v102a4.5,4.5,0,0,0,9,0Z"/><path d="M113.34,125h69a1.5,1.5,0,0,0,0-3h-69a1.5,1.5,0,0,0,0,3Z"/><path d="M179.16,126.68l29,29,6.36-6.36L208.23,143a4.5,4.5,0,0,0-6.36,6.36l6.29,6.29a4.5,4.5,0,0,0,6.36-6.36l-29-29a4.5,4.5,0,0,0-6.36,6.36Z"/><path d="M214.52,155.68l38-40-6.36-6.36-9.44,9.93a4.5,4.5,0,0,0,6.36,6.37l9.44-9.94a4.5,4.5,0,0,0-6.36-6.36l-38,40a4.5,4.5,0,0,0,6.36,6.36Z"/><path class="cls-4" d="M107.28,37.07a56.37,56.37,0,0,0-12.61-20A51.21,51.21,0,0,0,77.77,5.62,54.06,54.06,0,0,0,56.53,1.5,53.88,53.88,0,0,0,35,5.88,51.32,51.32,0,0,0,17.46,18.24a57.67,57.67,0,0,0-12,19.34,68.1,68.1,0,0,0-4,23.84A66.47,66.47,0,0,0,6.55,87.9a57.42,57.42,0,0,0,13.29,19.51,50.55,50.55,0,0,0,16.82,10.75,53.11,53.11,0,0,0,14.15,3.33,56.62,56.62,0,0,0,5.72.28,57.76,57.76,0,0,0,5.77-.28A52.77,52.77,0,0,0,76.75,118a54.07,54.07,0,0,0,17.83-12.11,56.29,56.29,0,0,0,12.27-19,66,66,0,0,0,4.72-25.29A69.67,69.67,0,0,0,107.28,37.07ZM93,84a47.26,47.26,0,0,1-10.47,15.6,38.35,38.35,0,0,1-12,8,36.26,36.26,0,0,1-14.16,2.76,35.61,35.61,0,0,1-14.21-2.85,37.76,37.76,0,0,1-11.49-7.52A45.67,45.67,0,0,1,19.82,83.52,58.72,58.72,0,0,1,16,61.59a58.83,58.83,0,0,1,3.78-20.91,46.91,46.91,0,0,1,10.6-16.83,37,37,0,0,1,12-8.11A36.57,36.57,0,0,1,56.53,13,35.66,35.66,0,0,1,70.7,15.69a38,38,0,0,1,11.44,7.65,44.46,44.46,0,0,1,11.28,17.9A65.73,65.73,0,0,1,97.12,63,52.67,52.67,0,0,1,93,84Z"/></g></g></svg>